<mxfile host="app.diagrams.net" modified="2020-10-16T18:30:49.836Z" agent="5.0 (Windows)" etag="4v5AOCOSrRqXje2rhdN8" version="13.8.0" type="github">
  <diagram id="C5RBs43oDa-KdzZeNtuy" name="Page-1">
    <mxGraphModel dx="1422" dy="883" grid="1" gridSize="10" guides="1" tooltips="1" connect="1" arrows="1" fold="1" page="1" pageScale="1" pageWidth="850" pageHeight="1100" math="0" shadow="0">
      <root>
        <mxCell id="WIyWlLk6GJQsqaUBKTNV-0" />
        <mxCell id="WIyWlLk6GJQsqaUBKTNV-1" parent="WIyWlLk6GJQsqaUBKTNV-0" />
        <mxCell id="W8YudOGk9wixbBGMQvWM-24" style="edgeStyle=orthogonalEdgeStyle;rounded=0;orthogonalLoop=1;jettySize=auto;html=1;exitX=0.5;exitY=1;exitDx=0;exitDy=0;entryX=0.5;entryY=0;entryDx=0;entryDy=0;" parent="WIyWlLk6GJQsqaUBKTNV-1" source="WIyWlLk6GJQsqaUBKTNV-3" target="W8YudOGk9wixbBGMQvWM-0" edge="1">
          <mxGeometry relative="1" as="geometry" />
        </mxCell>
        <mxCell id="WIyWlLk6GJQsqaUBKTNV-3" value="Start Serial Port" style="rounded=1;whiteSpace=wrap;html=1;fontSize=12;glass=0;strokeWidth=1;shadow=0;" parent="WIyWlLk6GJQsqaUBKTNV-1" vertex="1">
          <mxGeometry x="40" y="130" width="120" height="40" as="geometry" />
        </mxCell>
        <mxCell id="W8YudOGk9wixbBGMQvWM-25" style="edgeStyle=orthogonalEdgeStyle;rounded=0;orthogonalLoop=1;jettySize=auto;html=1;entryX=0.5;entryY=0;entryDx=0;entryDy=0;" parent="WIyWlLk6GJQsqaUBKTNV-1" source="W8YudOGk9wixbBGMQvWM-0" target="W8YudOGk9wixbBGMQvWM-1" edge="1">
          <mxGeometry relative="1" as="geometry" />
        </mxCell>
        <mxCell id="W8YudOGk9wixbBGMQvWM-0" value="&lt;div&gt;Setup LEDs&lt;/div&gt;" style="rounded=1;whiteSpace=wrap;html=1;" parent="WIyWlLk6GJQsqaUBKTNV-1" vertex="1">
          <mxGeometry x="40" y="210" width="120" height="40" as="geometry" />
        </mxCell>
        <mxCell id="W8YudOGk9wixbBGMQvWM-26" style="edgeStyle=orthogonalEdgeStyle;rounded=0;orthogonalLoop=1;jettySize=auto;html=1;exitX=0.5;exitY=1;exitDx=0;exitDy=0;entryX=0.5;entryY=0;entryDx=0;entryDy=0;" parent="WIyWlLk6GJQsqaUBKTNV-1" source="W8YudOGk9wixbBGMQvWM-1" target="W8YudOGk9wixbBGMQvWM-2" edge="1">
          <mxGeometry relative="1" as="geometry" />
        </mxCell>
        <mxCell id="W8YudOGk9wixbBGMQvWM-1" value="Flash LEDs" style="rounded=1;whiteSpace=wrap;html=1;" parent="WIyWlLk6GJQsqaUBKTNV-1" vertex="1">
          <mxGeometry x="40" y="290" width="120" height="40" as="geometry" />
        </mxCell>
        <mxCell id="W8YudOGk9wixbBGMQvWM-27" style="edgeStyle=orthogonalEdgeStyle;rounded=0;orthogonalLoop=1;jettySize=auto;html=1;exitX=0.5;exitY=1;exitDx=0;exitDy=0;entryX=0.5;entryY=0;entryDx=0;entryDy=0;" parent="WIyWlLk6GJQsqaUBKTNV-1" source="W8YudOGk9wixbBGMQvWM-2" target="W8YudOGk9wixbBGMQvWM-3" edge="1">
          <mxGeometry relative="1" as="geometry" />
        </mxCell>
        <mxCell id="W8YudOGk9wixbBGMQvWM-2" value="&lt;div&gt;Begin WiFi Connection&lt;br&gt;&lt;/div&gt;" style="rounded=1;whiteSpace=wrap;html=1;" parent="WIyWlLk6GJQsqaUBKTNV-1" vertex="1">
          <mxGeometry x="40" y="370" width="120" height="40" as="geometry" />
        </mxCell>
        <mxCell id="W8YudOGk9wixbBGMQvWM-28" style="edgeStyle=orthogonalEdgeStyle;rounded=0;orthogonalLoop=1;jettySize=auto;html=1;exitX=0.5;exitY=1;exitDx=0;exitDy=0;entryX=0.5;entryY=0;entryDx=0;entryDy=0;" parent="WIyWlLk6GJQsqaUBKTNV-1" source="W8YudOGk9wixbBGMQvWM-3" target="W8YudOGk9wixbBGMQvWM-4" edge="1">
          <mxGeometry relative="1" as="geometry" />
        </mxCell>
        <mxCell id="W8YudOGk9wixbBGMQvWM-3" value="&lt;div&gt;Start MQTT Server&lt;br&gt;&lt;/div&gt;" style="rounded=1;whiteSpace=wrap;html=1;" parent="WIyWlLk6GJQsqaUBKTNV-1" vertex="1">
          <mxGeometry x="40" y="450" width="120" height="40" as="geometry" />
        </mxCell>
        <mxCell id="W8YudOGk9wixbBGMQvWM-29" style="edgeStyle=orthogonalEdgeStyle;rounded=0;orthogonalLoop=1;jettySize=auto;html=1;exitX=0.5;exitY=1;exitDx=0;exitDy=0;entryX=0.5;entryY=0;entryDx=0;entryDy=0;" parent="WIyWlLk6GJQsqaUBKTNV-1" source="W8YudOGk9wixbBGMQvWM-4" target="W8YudOGk9wixbBGMQvWM-5" edge="1">
          <mxGeometry relative="1" as="geometry" />
        </mxCell>
        <mxCell id="W8YudOGk9wixbBGMQvWM-4" value="&lt;div&gt;Connect Contoller&lt;/div&gt;" style="rounded=1;whiteSpace=wrap;html=1;" parent="WIyWlLk6GJQsqaUBKTNV-1" vertex="1">
          <mxGeometry x="40" y="530" width="120" height="40" as="geometry" />
        </mxCell>
        <mxCell id="W8YudOGk9wixbBGMQvWM-30" style="edgeStyle=orthogonalEdgeStyle;rounded=0;orthogonalLoop=1;jettySize=auto;html=1;exitX=0.5;exitY=1;exitDx=0;exitDy=0;entryX=0.5;entryY=0;entryDx=0;entryDy=0;entryPerimeter=0;" parent="WIyWlLk6GJQsqaUBKTNV-1" source="W8YudOGk9wixbBGMQvWM-5" target="W8YudOGk9wixbBGMQvWM-13" edge="1">
          <mxGeometry relative="1" as="geometry" />
        </mxCell>
        <mxCell id="W8YudOGk9wixbBGMQvWM-5" value="Setup Motors" style="rounded=1;whiteSpace=wrap;html=1;" parent="WIyWlLk6GJQsqaUBKTNV-1" vertex="1">
          <mxGeometry x="40" y="610" width="120" height="40" as="geometry" />
        </mxCell>
        <mxCell id="W8YudOGk9wixbBGMQvWM-36" style="edgeStyle=orthogonalEdgeStyle;rounded=0;orthogonalLoop=1;jettySize=auto;html=1;exitX=0.5;exitY=1;exitDx=0;exitDy=0;entryX=0.5;entryY=0;entryDx=0;entryDy=0;" parent="WIyWlLk6GJQsqaUBKTNV-1" source="W8YudOGk9wixbBGMQvWM-6" target="W8YudOGk9wixbBGMQvWM-7" edge="1">
          <mxGeometry relative="1" as="geometry">
            <mxPoint x="100" y="900" as="targetPoint" />
          </mxGeometry>
        </mxCell>
        <mxCell id="W8YudOGk9wixbBGMQvWM-6" value="Setup Peripherals" style="rounded=1;whiteSpace=wrap;html=1;" parent="WIyWlLk6GJQsqaUBKTNV-1" vertex="1">
          <mxGeometry x="40" y="825" width="120" height="40" as="geometry" />
        </mxCell>
        <mxCell id="W8YudOGk9wixbBGMQvWM-64" style="edgeStyle=orthogonalEdgeStyle;rounded=0;orthogonalLoop=1;jettySize=auto;html=1;exitX=0.5;exitY=1;exitDx=0;exitDy=0;entryX=0.5;entryY=0;entryDx=0;entryDy=0;entryPerimeter=0;" parent="WIyWlLk6GJQsqaUBKTNV-1" source="W8YudOGk9wixbBGMQvWM-7" target="W8YudOGk9wixbBGMQvWM-63" edge="1">
          <mxGeometry relative="1" as="geometry" />
        </mxCell>
        <mxCell id="W8YudOGk9wixbBGMQvWM-7" value="&lt;div&gt;Setup LEDs&lt;/div&gt;" style="rounded=1;whiteSpace=wrap;html=1;" parent="WIyWlLk6GJQsqaUBKTNV-1" vertex="1">
          <mxGeometry x="40" y="940" width="120" height="40" as="geometry" />
        </mxCell>
        <mxCell id="W8YudOGk9wixbBGMQvWM-51" value="&lt;div&gt;Yes&lt;/div&gt;" style="edgeStyle=orthogonalEdgeStyle;rounded=0;orthogonalLoop=1;jettySize=auto;html=1;" parent="WIyWlLk6GJQsqaUBKTNV-1" source="W8YudOGk9wixbBGMQvWM-8" target="W8YudOGk9wixbBGMQvWM-14" edge="1">
          <mxGeometry x="0.2" y="10" relative="1" as="geometry">
            <mxPoint as="offset" />
          </mxGeometry>
        </mxCell>
        <mxCell id="W8YudOGk9wixbBGMQvWM-76" value="No" style="edgeStyle=orthogonalEdgeStyle;rounded=0;orthogonalLoop=1;jettySize=auto;html=1;endArrow=classic;endFill=1;exitX=1;exitY=0.5;exitDx=0;exitDy=0;exitPerimeter=0;" parent="WIyWlLk6GJQsqaUBKTNV-1" source="W8YudOGk9wixbBGMQvWM-8" edge="1">
          <mxGeometry x="-0.9683" y="10" relative="1" as="geometry">
            <mxPoint x="349.94" y="740" as="targetPoint" />
            <Array as="points">
              <mxPoint x="449.94" y="255" />
              <mxPoint x="449.94" y="740" />
            </Array>
            <mxPoint as="offset" />
          </mxGeometry>
        </mxCell>
        <mxCell id="W8YudOGk9wixbBGMQvWM-8" value="PS3 Contoller Connected?" style="strokeWidth=2;html=1;shape=mxgraph.flowchart.decision;whiteSpace=wrap;" parent="WIyWlLk6GJQsqaUBKTNV-1" vertex="1">
          <mxGeometry x="294.94" y="200" width="110" height="110" as="geometry" />
        </mxCell>
        <mxCell id="W8YudOGk9wixbBGMQvWM-58" style="edgeStyle=orthogonalEdgeStyle;rounded=0;orthogonalLoop=1;jettySize=auto;html=1;exitX=0.5;exitY=1;exitDx=0;exitDy=0;exitPerimeter=0;entryX=0.5;entryY=0;entryDx=0;entryDy=0;entryPerimeter=0;" parent="WIyWlLk6GJQsqaUBKTNV-1" source="W8YudOGk9wixbBGMQvWM-9" target="W8YudOGk9wixbBGMQvWM-10" edge="1">
          <mxGeometry relative="1" as="geometry" />
        </mxCell>
        <mxCell id="W8YudOGk9wixbBGMQvWM-62" style="edgeStyle=orthogonalEdgeStyle;rounded=0;orthogonalLoop=1;jettySize=auto;html=1;entryX=0;entryY=0.5;entryDx=0;entryDy=0;" parent="WIyWlLk6GJQsqaUBKTNV-1" source="W8YudOGk9wixbBGMQvWM-9" target="W8YudOGk9wixbBGMQvWM-22" edge="1">
          <mxGeometry relative="1" as="geometry" />
        </mxCell>
        <mxCell id="W8YudOGk9wixbBGMQvWM-9" value="WiFi Connected?" style="strokeWidth=2;html=1;shape=mxgraph.flowchart.decision;whiteSpace=wrap;" parent="WIyWlLk6GJQsqaUBKTNV-1" vertex="1">
          <mxGeometry x="494.94" y="200" width="110" height="110" as="geometry" />
        </mxCell>
        <mxCell id="W8YudOGk9wixbBGMQvWM-59" style="edgeStyle=orthogonalEdgeStyle;rounded=0;orthogonalLoop=1;jettySize=auto;html=1;entryX=0.5;entryY=0;entryDx=0;entryDy=0;entryPerimeter=0;" parent="WIyWlLk6GJQsqaUBKTNV-1" source="W8YudOGk9wixbBGMQvWM-10" target="W8YudOGk9wixbBGMQvWM-11" edge="1">
          <mxGeometry relative="1" as="geometry" />
        </mxCell>
        <mxCell id="W8YudOGk9wixbBGMQvWM-61" style="edgeStyle=orthogonalEdgeStyle;rounded=0;orthogonalLoop=1;jettySize=auto;html=1;exitX=1;exitY=0.5;exitDx=0;exitDy=0;exitPerimeter=0;entryX=0;entryY=0.5;entryDx=0;entryDy=0;" parent="WIyWlLk6GJQsqaUBKTNV-1" source="W8YudOGk9wixbBGMQvWM-10" target="W8YudOGk9wixbBGMQvWM-21" edge="1">
          <mxGeometry relative="1" as="geometry" />
        </mxCell>
        <mxCell id="W8YudOGk9wixbBGMQvWM-10" value="MQTT Connected?" style="strokeWidth=2;html=1;shape=mxgraph.flowchart.decision;whiteSpace=wrap;spacing=8;" parent="WIyWlLk6GJQsqaUBKTNV-1" vertex="1">
          <mxGeometry x="494.94" y="360" width="110" height="110" as="geometry" />
        </mxCell>
        <mxCell id="W8YudOGk9wixbBGMQvWM-60" value="Yes" style="edgeStyle=orthogonalEdgeStyle;rounded=0;orthogonalLoop=1;jettySize=auto;html=1;exitX=0.5;exitY=1;exitDx=0;exitDy=0;exitPerimeter=0;entryX=0.5;entryY=0;entryDx=0;entryDy=0;" parent="WIyWlLk6GJQsqaUBKTNV-1" source="W8YudOGk9wixbBGMQvWM-11" target="W8YudOGk9wixbBGMQvWM-20" edge="1">
          <mxGeometry x="-0.3333" y="10" relative="1" as="geometry">
            <mxPoint as="offset" />
          </mxGeometry>
        </mxCell>
        <mxCell id="W8YudOGk9wixbBGMQvWM-70" style="edgeStyle=orthogonalEdgeStyle;rounded=0;orthogonalLoop=1;jettySize=auto;html=1;exitX=1;exitY=0.5;exitDx=0;exitDy=0;exitPerimeter=0;" parent="WIyWlLk6GJQsqaUBKTNV-1" source="W8YudOGk9wixbBGMQvWM-11" edge="1">
          <mxGeometry relative="1" as="geometry">
            <mxPoint x="549.94" y="780" as="targetPoint" />
            <Array as="points">
              <mxPoint x="689.94" y="575" />
              <mxPoint x="689.94" y="780" />
            </Array>
          </mxGeometry>
        </mxCell>
        <mxCell id="W8YudOGk9wixbBGMQvWM-78" value="No" style="edgeLabel;html=1;align=center;verticalAlign=middle;resizable=0;points=[];" parent="W8YudOGk9wixbBGMQvWM-70" vertex="1" connectable="0">
          <mxGeometry x="-0.9023" y="-1" relative="1" as="geometry">
            <mxPoint x="-11" y="-11" as="offset" />
          </mxGeometry>
        </mxCell>
        <mxCell id="W8YudOGk9wixbBGMQvWM-11" value="200ms Since Last JSON Send? " style="strokeWidth=2;html=1;shape=mxgraph.flowchart.decision;whiteSpace=wrap;spacing=10;" parent="WIyWlLk6GJQsqaUBKTNV-1" vertex="1">
          <mxGeometry x="494.94" y="520" width="110" height="110" as="geometry" />
        </mxCell>
        <mxCell id="W8YudOGk9wixbBGMQvWM-57" value="Yes" style="edgeStyle=orthogonalEdgeStyle;rounded=0;orthogonalLoop=1;jettySize=auto;html=1;" parent="WIyWlLk6GJQsqaUBKTNV-1" source="W8YudOGk9wixbBGMQvWM-12" target="W8YudOGk9wixbBGMQvWM-19" edge="1">
          <mxGeometry x="-0.5" y="10" relative="1" as="geometry">
            <mxPoint as="offset" />
          </mxGeometry>
        </mxCell>
        <mxCell id="W8YudOGk9wixbBGMQvWM-77" value="No" style="edgeStyle=orthogonalEdgeStyle;rounded=0;orthogonalLoop=1;jettySize=auto;html=1;endArrow=classic;endFill=1;exitX=1;exitY=0.5;exitDx=0;exitDy=0;exitPerimeter=0;" parent="WIyWlLk6GJQsqaUBKTNV-1" source="W8YudOGk9wixbBGMQvWM-12" edge="1">
          <mxGeometry x="-0.9333" y="10" relative="1" as="geometry">
            <mxPoint x="349.94" y="990" as="targetPoint" />
            <Array as="points">
              <mxPoint x="449.94" y="835" />
              <mxPoint x="449.94" y="990" />
            </Array>
            <mxPoint as="offset" />
          </mxGeometry>
        </mxCell>
        <mxCell id="W8YudOGk9wixbBGMQvWM-12" value="PERIPHERAL Defined?" style="strokeWidth=2;html=1;shape=mxgraph.flowchart.decision;whiteSpace=wrap;" parent="WIyWlLk6GJQsqaUBKTNV-1" vertex="1">
          <mxGeometry x="294.94" y="780" width="110" height="110" as="geometry" />
        </mxCell>
        <mxCell id="W8YudOGk9wixbBGMQvWM-32" value="Yes" style="edgeStyle=orthogonalEdgeStyle;rounded=0;orthogonalLoop=1;jettySize=auto;html=1;entryX=0.5;entryY=0;entryDx=0;entryDy=0;" parent="WIyWlLk6GJQsqaUBKTNV-1" source="W8YudOGk9wixbBGMQvWM-13" target="W8YudOGk9wixbBGMQvWM-6" edge="1">
          <mxGeometry x="0.2" y="10" relative="1" as="geometry">
            <mxPoint as="offset" />
          </mxGeometry>
        </mxCell>
        <mxCell id="W8YudOGk9wixbBGMQvWM-37" style="edgeStyle=orthogonalEdgeStyle;rounded=0;orthogonalLoop=1;jettySize=auto;html=1;exitX=1;exitY=0.5;exitDx=0;exitDy=0;exitPerimeter=0;endArrow=classic;endFill=1;" parent="WIyWlLk6GJQsqaUBKTNV-1" source="W8YudOGk9wixbBGMQvWM-13" edge="1">
          <mxGeometry relative="1" as="geometry">
            <mxPoint x="100" y="900" as="targetPoint" />
            <Array as="points">
              <mxPoint x="200" y="735" />
              <mxPoint x="200" y="900" />
              <mxPoint x="100" y="900" />
            </Array>
          </mxGeometry>
        </mxCell>
        <mxCell id="W8YudOGk9wixbBGMQvWM-44" value="No" style="edgeLabel;html=1;align=center;verticalAlign=middle;resizable=0;points=[];" parent="W8YudOGk9wixbBGMQvWM-37" vertex="1" connectable="0">
          <mxGeometry x="-0.8296" relative="1" as="geometry">
            <mxPoint x="-20.67" y="-10" as="offset" />
          </mxGeometry>
        </mxCell>
        <mxCell id="W8YudOGk9wixbBGMQvWM-13" value="PERIPHERAL Defined?" style="strokeWidth=2;html=1;shape=mxgraph.flowchart.decision;whiteSpace=wrap;" parent="WIyWlLk6GJQsqaUBKTNV-1" vertex="1">
          <mxGeometry x="45" y="680" width="110" height="110" as="geometry" />
        </mxCell>
        <mxCell id="W8YudOGk9wixbBGMQvWM-52" style="edgeStyle=orthogonalEdgeStyle;rounded=0;orthogonalLoop=1;jettySize=auto;html=1;exitX=0.5;exitY=1;exitDx=0;exitDy=0;entryX=0.5;entryY=0;entryDx=0;entryDy=0;" parent="WIyWlLk6GJQsqaUBKTNV-1" source="W8YudOGk9wixbBGMQvWM-14" target="W8YudOGk9wixbBGMQvWM-15" edge="1">
          <mxGeometry relative="1" as="geometry" />
        </mxCell>
        <mxCell id="W8YudOGk9wixbBGMQvWM-14" value="Read joystick input" style="rounded=1;whiteSpace=wrap;html=1;" parent="WIyWlLk6GJQsqaUBKTNV-1" vertex="1">
          <mxGeometry x="289.94" y="340" width="120" height="40" as="geometry" />
        </mxCell>
        <mxCell id="W8YudOGk9wixbBGMQvWM-53" style="edgeStyle=orthogonalEdgeStyle;rounded=0;orthogonalLoop=1;jettySize=auto;html=1;exitX=0.5;exitY=1;exitDx=0;exitDy=0;entryX=0.5;entryY=0;entryDx=0;entryDy=0;" parent="WIyWlLk6GJQsqaUBKTNV-1" source="W8YudOGk9wixbBGMQvWM-15" target="W8YudOGk9wixbBGMQvWM-16" edge="1">
          <mxGeometry relative="1" as="geometry" />
        </mxCell>
        <mxCell id="W8YudOGk9wixbBGMQvWM-15" value="&lt;div&gt;Set handicap/kidsmode&lt;br&gt;&lt;/div&gt;" style="rounded=1;whiteSpace=wrap;html=1;" parent="WIyWlLk6GJQsqaUBKTNV-1" vertex="1">
          <mxGeometry x="289.94" y="420" width="120" height="40" as="geometry" />
        </mxCell>
        <mxCell id="W8YudOGk9wixbBGMQvWM-54" style="edgeStyle=orthogonalEdgeStyle;rounded=0;orthogonalLoop=1;jettySize=auto;html=1;exitX=0.5;exitY=1;exitDx=0;exitDy=0;" parent="WIyWlLk6GJQsqaUBKTNV-1" source="W8YudOGk9wixbBGMQvWM-16" target="W8YudOGk9wixbBGMQvWM-17" edge="1">
          <mxGeometry relative="1" as="geometry" />
        </mxCell>
        <mxCell id="W8YudOGk9wixbBGMQvWM-16" value="&lt;div&gt;Motor correction&lt;br&gt;&lt;/div&gt;" style="rounded=1;whiteSpace=wrap;html=1;" parent="WIyWlLk6GJQsqaUBKTNV-1" vertex="1">
          <mxGeometry x="289.94" y="500" width="120" height="40" as="geometry" />
        </mxCell>
        <mxCell id="W8YudOGk9wixbBGMQvWM-55" style="edgeStyle=orthogonalEdgeStyle;rounded=0;orthogonalLoop=1;jettySize=auto;html=1;entryX=0.5;entryY=0;entryDx=0;entryDy=0;" parent="WIyWlLk6GJQsqaUBKTNV-1" source="W8YudOGk9wixbBGMQvWM-17" target="W8YudOGk9wixbBGMQvWM-18" edge="1">
          <mxGeometry relative="1" as="geometry" />
        </mxCell>
        <mxCell id="W8YudOGk9wixbBGMQvWM-17" value="&lt;div&gt;Read tackle sensor&lt;br&gt;&lt;/div&gt;" style="rounded=1;whiteSpace=wrap;html=1;" parent="WIyWlLk6GJQsqaUBKTNV-1" vertex="1">
          <mxGeometry x="289.94" y="580" width="120" height="40" as="geometry" />
        </mxCell>
        <mxCell id="W8YudOGk9wixbBGMQvWM-56" style="edgeStyle=orthogonalEdgeStyle;rounded=0;orthogonalLoop=1;jettySize=auto;html=1;" parent="WIyWlLk6GJQsqaUBKTNV-1" source="W8YudOGk9wixbBGMQvWM-18" target="W8YudOGk9wixbBGMQvWM-12" edge="1">
          <mxGeometry relative="1" as="geometry" />
        </mxCell>
        <mxCell id="W8YudOGk9wixbBGMQvWM-18" value="&lt;div&gt;Drive robot&lt;br&gt;&lt;/div&gt;" style="rounded=1;whiteSpace=wrap;html=1;" parent="WIyWlLk6GJQsqaUBKTNV-1" vertex="1">
          <mxGeometry x="289.94" y="660" width="120" height="40" as="geometry" />
        </mxCell>
        <mxCell id="W8YudOGk9wixbBGMQvWM-68" style="edgeStyle=orthogonalEdgeStyle;rounded=0;orthogonalLoop=1;jettySize=auto;html=1;" parent="WIyWlLk6GJQsqaUBKTNV-1" source="W8YudOGk9wixbBGMQvWM-19" edge="1">
          <mxGeometry relative="1" as="geometry">
            <mxPoint x="440" y="140" as="targetPoint" />
            <Array as="points">
              <mxPoint x="349.94" y="1030" />
              <mxPoint x="449.94" y="1030" />
              <mxPoint x="449.94" y="1070" />
              <mxPoint x="249.94" y="1070" />
              <mxPoint x="249.94" y="140" />
            </Array>
          </mxGeometry>
        </mxCell>
        <mxCell id="W8YudOGk9wixbBGMQvWM-19" value="&lt;div&gt;Call peripheral&lt;br&gt;&lt;/div&gt;" style="rounded=1;whiteSpace=wrap;html=1;" parent="WIyWlLk6GJQsqaUBKTNV-1" vertex="1">
          <mxGeometry x="289.94" y="930" width="120" height="40" as="geometry" />
        </mxCell>
        <mxCell id="W8YudOGk9wixbBGMQvWM-67" style="edgeStyle=orthogonalEdgeStyle;rounded=0;orthogonalLoop=1;jettySize=auto;html=1;endArrow=none;endFill=0;" parent="WIyWlLk6GJQsqaUBKTNV-1" source="W8YudOGk9wixbBGMQvWM-20" edge="1">
          <mxGeometry relative="1" as="geometry">
            <mxPoint x="449.94" y="1030" as="targetPoint" />
            <Array as="points">
              <mxPoint x="549.94" y="1030" />
              <mxPoint x="449.94" y="1030" />
            </Array>
          </mxGeometry>
        </mxCell>
        <mxCell id="W8YudOGk9wixbBGMQvWM-20" value="Send JSON data" style="rounded=1;whiteSpace=wrap;html=1;" parent="WIyWlLk6GJQsqaUBKTNV-1" vertex="1">
          <mxGeometry x="489.94" y="660" width="120" height="40" as="geometry" />
        </mxCell>
        <mxCell id="W8YudOGk9wixbBGMQvWM-71" style="edgeStyle=orthogonalEdgeStyle;rounded=0;orthogonalLoop=1;jettySize=auto;html=1;endArrow=none;endFill=0;exitX=1;exitY=0.5;exitDx=0;exitDy=0;" parent="WIyWlLk6GJQsqaUBKTNV-1" source="W8YudOGk9wixbBGMQvWM-21" edge="1">
          <mxGeometry relative="1" as="geometry">
            <mxPoint x="649.94" y="780" as="targetPoint" />
            <Array as="points">
              <mxPoint x="809.94" y="415" />
              <mxPoint x="809.94" y="780" />
            </Array>
          </mxGeometry>
        </mxCell>
        <mxCell id="W8YudOGk9wixbBGMQvWM-21" value="&lt;div&gt;Connect to MQTT&lt;br&gt;&lt;/div&gt;" style="rounded=1;whiteSpace=wrap;html=1;" parent="WIyWlLk6GJQsqaUBKTNV-1" vertex="1">
          <mxGeometry x="649.94" y="395" width="120" height="40" as="geometry" />
        </mxCell>
        <mxCell id="W8YudOGk9wixbBGMQvWM-72" style="edgeStyle=orthogonalEdgeStyle;rounded=0;orthogonalLoop=1;jettySize=auto;html=1;endArrow=none;endFill=0;exitX=1;exitY=0.5;exitDx=0;exitDy=0;" parent="WIyWlLk6GJQsqaUBKTNV-1" source="W8YudOGk9wixbBGMQvWM-22" edge="1">
          <mxGeometry relative="1" as="geometry">
            <mxPoint x="809.94" y="420" as="targetPoint" />
            <Array as="points">
              <mxPoint x="809.94" y="255" />
            </Array>
          </mxGeometry>
        </mxCell>
        <mxCell id="W8YudOGk9wixbBGMQvWM-22" value="Connect to WiFi" style="rounded=1;whiteSpace=wrap;html=1;" parent="WIyWlLk6GJQsqaUBKTNV-1" vertex="1">
          <mxGeometry x="649.94" y="235" width="120" height="40" as="geometry" />
        </mxCell>
        <mxCell id="W8YudOGk9wixbBGMQvWM-46" style="edgeStyle=orthogonalEdgeStyle;rounded=0;orthogonalLoop=1;jettySize=auto;html=1;entryX=0.5;entryY=0;entryDx=0;entryDy=0;" parent="WIyWlLk6GJQsqaUBKTNV-1" source="W8YudOGk9wixbBGMQvWM-45" target="WIyWlLk6GJQsqaUBKTNV-3" edge="1">
          <mxGeometry relative="1" as="geometry" />
        </mxCell>
        <mxCell id="W8YudOGk9wixbBGMQvWM-45" value="Setup" style="strokeWidth=2;html=1;shape=mxgraph.flowchart.start_1;whiteSpace=wrap;" parent="WIyWlLk6GJQsqaUBKTNV-1" vertex="1">
          <mxGeometry x="50" y="30" width="100" height="60" as="geometry" />
        </mxCell>
        <mxCell id="W8YudOGk9wixbBGMQvWM-48" style="edgeStyle=orthogonalEdgeStyle;rounded=0;orthogonalLoop=1;jettySize=auto;html=1;exitX=0.5;exitY=1;exitDx=0;exitDy=0;exitPerimeter=0;entryX=0.5;entryY=0;entryDx=0;entryDy=0;entryPerimeter=0;" parent="WIyWlLk6GJQsqaUBKTNV-1" source="W8YudOGk9wixbBGMQvWM-47" target="W8YudOGk9wixbBGMQvWM-8" edge="1">
          <mxGeometry relative="1" as="geometry">
            <Array as="points">
              <mxPoint x="440" y="160" />
              <mxPoint x="350" y="160" />
            </Array>
          </mxGeometry>
        </mxCell>
        <mxCell id="W8YudOGk9wixbBGMQvWM-50" style="edgeStyle=orthogonalEdgeStyle;rounded=0;orthogonalLoop=1;jettySize=auto;html=1;" parent="WIyWlLk6GJQsqaUBKTNV-1" source="W8YudOGk9wixbBGMQvWM-47" target="W8YudOGk9wixbBGMQvWM-9" edge="1">
          <mxGeometry relative="1" as="geometry">
            <Array as="points">
              <mxPoint x="440" y="160" />
              <mxPoint x="550" y="160" />
            </Array>
          </mxGeometry>
        </mxCell>
        <mxCell id="W8YudOGk9wixbBGMQvWM-47" value="Loop" style="strokeWidth=2;html=1;shape=mxgraph.flowchart.start_1;whiteSpace=wrap;" parent="WIyWlLk6GJQsqaUBKTNV-1" vertex="1">
          <mxGeometry x="389.94" y="60" width="100" height="60" as="geometry" />
        </mxCell>
        <mxCell id="W8YudOGk9wixbBGMQvWM-63" value="End" style="strokeWidth=2;html=1;shape=mxgraph.flowchart.terminator;whiteSpace=wrap;" parent="WIyWlLk6GJQsqaUBKTNV-1" vertex="1">
          <mxGeometry x="50" y="1020" width="100" height="60" as="geometry" />
        </mxCell>
      </root>
    </mxGraphModel>
  </diagram>
</mxfile>
